<?xml version="1.0" encoding="UTF-8"?>
<svg width="32px" height="32px" viewBox="0 0 32 32" version="1.1" xmlns="http://www.w3.org/2000/svg" xmlns:xlink="http://www.w3.org/1999/xlink">
    <title>sparkle32</title>
    <g id="sparkle" stroke="none" stroke-width="1" fill="none" fill-rule="evenodd">
        <path d="M12.3343314,19.2660376 L8.04892807,20.5212032 C7.78391894,20.5988226 7.50616364,20.4469132 7.42854426,20.181904 C7.40166625,20.0901368 7.40166625,19.9925867 7.42854426,19.9008194 L8.68370984,15.6154161 C8.71058785,15.5236488 8.71058785,15.4260987 8.68370984,15.3343314 L7.42854426,11.0489281 C7.35092488,10.7839189 7.5028343,10.5061636 7.76784344,10.4285443 C7.85961071,10.4016663 7.9571608,10.4016663 8.04892807,10.4285443 L12.3343314,11.6837098 C12.4260987,11.7105879 12.5236488,11.7105879 12.6154161,11.6837098 L16.9008194,10.4285443 C17.1658285,10.3509249 17.4435838,10.5028343 17.5212032,10.7678434 C17.5480812,10.8596107 17.5480812,10.9571608 17.5212032,11.0489281 L16.2660376,15.3343314 C16.2391596,15.4260987 16.2391596,15.5236488 16.2660376,15.6154161 L17.5212032,19.9008194 C17.5988226,20.1658285 17.4469132,20.4435838 17.181904,20.5212032 C17.0901368,20.5480812 16.9925867,20.5480812 16.9008194,20.5212032 L12.6154161,19.2660376 C12.5236488,19.2391596 12.4260987,19.2391596 12.3343314,19.2660376 Z" id="Star" fill="#FFFFFF" transform="translate(12.4749, 15.4749) rotate(45) translate(-12.4749, -15.4749)"></path>
        <path d="M20.2189755,12.0779992 L18.3548403,12.6239918 C18.1958348,12.6705634 18.0291816,12.5794177 17.98261,12.4204122 C17.9664832,12.3653519 17.9664832,12.3068218 17.98261,12.2517615 L18.5286025,10.3876263 C18.5447293,10.3325659 18.5447293,10.2740358 18.5286025,10.2189755 L17.98261,8.35484026 C17.9360383,8.19583478 18.027184,8.02918159 18.1861895,7.98260996 C18.2412498,7.96648316 18.2997799,7.96648316 18.3548403,7.98260996 L20.2189755,8.52860252 C20.2740358,8.54472933 20.3325659,8.54472933 20.3876263,8.52860252 L22.2517615,7.98260996 C22.4107669,7.93603833 22.5774201,8.02718399 22.6239918,8.18618948 C22.6401186,8.24124984 22.6401186,8.2997799 22.6239918,8.35484026 L22.0779992,10.2189755 C22.0618724,10.2740358 22.0618724,10.3325659 22.0779992,10.3876263 L22.6239918,12.2517615 C22.6705634,12.4107669 22.5794177,12.5774201 22.4204122,12.6239918 C22.3653519,12.6401186 22.3068218,12.6401186 22.2517615,12.6239918 L20.3876263,12.0779992 C20.3325659,12.0618724 20.2740358,12.0618724 20.2189755,12.0779992 Z" id="Star-Copy-2" fill="#FFFFFF" transform="translate(20.3033, 10.3033) rotate(45) translate(-20.3033, -10.3033)"></path>
        <path d="M20.2189755,23.0779992 L18.3548403,23.6239918 C18.1958348,23.6705634 18.0291816,23.5794177 17.98261,23.4204122 C17.9664832,23.3653519 17.9664832,23.3068218 17.98261,23.2517615 L18.5286025,21.3876263 C18.5447293,21.3325659 18.5447293,21.2740358 18.5286025,21.2189755 L17.98261,19.3548403 C17.9360383,19.1958348 18.027184,19.0291816 18.1861895,18.98261 C18.2412498,18.9664832 18.2997799,18.9664832 18.3548403,18.98261 L20.2189755,19.5286025 C20.2740358,19.5447293 20.3325659,19.5447293 20.3876263,19.5286025 L22.2517615,18.98261 C22.4107669,18.9360383 22.5774201,19.027184 22.6239918,19.1861895 C22.6401186,19.2412498 22.6401186,19.2997799 22.6239918,19.3548403 L22.0779992,21.2189755 C22.0618724,21.2740358 22.0618724,21.3325659 22.0779992,21.3876263 L22.6239918,23.2517615 C22.6705634,23.4107669 22.5794177,23.5774201 22.4204122,23.6239918 C22.3653519,23.6401186 22.3068218,23.6401186 22.2517615,23.6239918 L20.3876263,23.0779992 C20.3325659,23.0618724 20.2740358,23.0618724 20.2189755,23.0779992 Z" id="Star-Copy-3" fill="#FFFFFF" transform="translate(20.3033, 21.3033) rotate(45) translate(-20.3033, -21.3033)"></path>
    </g>
</svg>